<svg xmlns="http://www.w3.org/2000/svg" viewBox="0 0 32 32" aria-hidden="true" role="presentation" focusable="false" style="display: block; height: 24px; width: 24px; fill: currentcolor;"><path d="M3 30a2 2 0 0 1-2-1.85v-6.03c0-4.31 2.36-8.19 6-10.21V9c-1.8-.03-2.73-.31-3.7-1.3-.98-.96-1.26-1.88-1.3-3.66V2L3.26 2h.5c1.97.01 2.93.28 3.95 1.3l.3.31.28-.32C9.31 2.28 10.27 2.01 12.23 2H14L14 3.27v.5c-.01 1.97-.27 2.93-1.3 3.95-.97.98-1.9 1.26-3.7 1.29v2.03l.75-.22a24.8 24.8 0 0 1 8.32-.72A11.13 11.13 0 0 1 18 9.04V7L19.27 7h.5c1.97.01 2.93.27 3.95 1.3l.3.31.28-.32c1.02-1.02 1.98-1.28 3.94-1.3h.5l1.26.02.01 1.25v.5c-.01 1.97-.27 2.93-1.3 3.95-.43.43-.85.73-1.35.93A11.68 11.68 0 0 1 31 21.77V28a2 2 0 0 1-1.85 2H29zm26-6h-.19a1.95 1.95 0 0 0-1.14.5 3.98 3.98 0 0 1-2.67 1 3.98 3.98 0 0 1-2.67-1 1.95 1.95 0 0 0-1.14-.5H21v4h8zm-19 0c-.5 0-.98.17-1.33.5a3.98 3.98 0 0 1-2.67 1 4 4 0 0 1-2.5-.86l-.17-.15c-.1-.09-.21-.17-.33-.23V28h8v-3.74a2.04 2.04 0 0 0-1-.26zm6-6a3 3 0 0 0-2.98 2.65l-.01.17L13 21v7h6v-7.18A3 3 0 0 0 16 18zm0-6c-1.91 0-3.83.25-5.75.75A9.68 9.68 0 0 0 3 21.84v.28c.62.16 1.2.46 1.67.89.35.32.83.5 1.33.5.5 0 .98-.18 1.33-.5A3.97 3.97 0 0 1 10 22c.26 0 .5.02.75.07l.25.05v-1.34a5 5 0 0 1 9.98-.22l.02.22V22c.99 0 1.95.35 2.67 1 .35.33.83.5 1.33.5.5 0 .98-.17 1.33-.5a3.96 3.96 0 0 1 2.44-1H29v-.2a9.68 9.68 0 0 0-4-7.52V17h-2v-3c-1.8-.03-2.73-.31-3.7-1.3a4.95 4.95 0 0 1-.47-.52l-.18-.02A22.28 22.28 0 0 0 16 12zm0 8a1 1 0 1 1 0 2 1 1 0 0 1 0-2zm4-11 .02.43c.05.98.22 1.4.69 1.86.47.47.88.64 1.85.7H23l-.02-.42c-.04-.84-.17-1.27-.5-1.67l-.1-.1-.09-.1c-.47-.46-.88-.63-1.85-.68zm7.98.43L28 9h-.22c-1.13.04-1.57.2-2.07.7l-.1.1c-.4.43-.55.86-.6 1.77V12h.2c1.14-.04 1.58-.2 2.08-.7.47-.48.64-.9.7-1.87zM24 1a3 3 0 1 1 0 6 3 3 0 0 1 0-6zM4 4l.02.43c.05.98.22 1.4.69 1.86s.88.64 1.86.7H7l-.02-.42c-.04-.84-.17-1.27-.5-1.67l-.1-.1-.09-.1c-.47-.46-.88-.63-1.85-.68L4.22 4zm8 0h-.22c-1.13.04-1.57.2-2.07.7l-.1.1c-.4.43-.55.86-.6 1.77V7h.2c1.14-.04 1.58-.2 2.08-.7.47-.48.64-.9.7-1.87zm12-1a1 1 0 1 0 0 2 1 1 0 0 0 0-2z"></path></svg>